<svg width="59" height="67" viewBox="0 0 59 67" fill="none" xmlns="http://www.w3.org/2000/svg">
<g filter="url(#filter0_d_8_70)">
<path d="M52.0696 32.1301C51.8499 31.5568 51.3324 31.1871 50.7875 30.9872L30.2243 22.0178C29.7175 21.8443 29.1744 21.8443 28.6676 22.0178L8.12415 30.992C7.57486 31.1799 7.04425 31.5665 6.82673 32.1397C6.60921 32.7129 6.50375 33.2681 6.71687 33.9557L11.8286 48.3047C11.8937 48.4811 12.0083 48.6303 12.1558 48.7307C12.3033 48.8312 12.4761 48.8776 12.6492 48.8635C15.5813 48.6612 18.1762 47.0294 20.1613 44.9496C20.3173 44.7889 20.5234 44.6994 20.7375 44.6994C20.9516 44.6994 21.1577 44.7889 21.3137 44.9496C23.4362 47.1775 26.2606 48.8635 29.4465 48.8635C32.6324 48.8635 35.4404 47.1775 37.5628 44.9448C37.719 44.784 37.9253 44.6945 38.1396 44.6945C38.3539 44.6945 38.5601 44.784 38.7163 44.9448C40.7015 47.0258 43.2963 48.6612 46.2284 48.8635C46.401 48.8778 46.5733 48.8318 46.7206 48.7321C46.8679 48.6323 46.9825 48.484 47.048 48.3083L52.1783 33.9582C52.3958 33.3825 52.2871 32.7045 52.0696 32.1301V32.1301Z" stroke="#058B43" stroke-width="4" stroke-miterlimit="10"/>
<path d="M47.0238 57.6716C47.0238 57.5237 46.9874 57.3787 46.9186 57.2515C46.8498 57.1244 46.7511 57.0199 46.6327 56.949C43.6578 55.1968 40.9454 52.5149 39.7523 51.1685C39.5751 50.9647 39.3385 50.8351 39.0835 50.8019C38.8284 50.7687 38.5708 50.834 38.3549 50.9866C32.8258 54.8909 26.0937 54.8933 20.5634 50.9927C20.3457 50.8385 20.0855 50.7729 19.8282 50.8072C19.5709 50.8416 19.3327 50.9736 19.155 51.1805C17.9719 52.539 15.2891 55.1908 12.2966 56.9309C12.1779 56.9969 12.0764 57.0948 12.0016 57.2155C11.9269 57.3362 11.8813 57.4757 11.8692 57.621C11.8603 57.7448 11.8775 57.8692 11.9194 57.9845C11.9613 58.0999 12.0268 58.2032 12.1109 58.2864C12.1949 58.3696 12.2953 58.4305 12.4043 58.4644C12.5133 58.4984 12.6279 58.5044 12.7393 58.4821C15.0299 57.9787 17.2435 56.8346 19.3528 55.6123C19.4881 55.5342 19.6385 55.4928 19.7914 55.4915C19.9443 55.4902 20.0953 55.5292 20.2316 55.605C23.0882 57.1984 26.2478 58.0291 29.4529 58.0295C32.6579 58.0299 35.8177 57.2 38.6746 55.6074C38.8125 55.5308 38.9652 55.4915 39.1198 55.4928C39.2744 55.494 39.4265 55.5358 39.5634 55.6147C41.6616 56.8189 43.872 57.9738 46.1548 58.4808C46.2624 58.5028 46.373 58.4983 46.4787 58.4677C46.5844 58.437 46.6826 58.381 46.7662 58.3037C46.8498 58.2264 46.9166 58.1297 46.962 58.0205C47.0073 57.9114 47.0299 57.7926 47.0282 57.6728L47.0238 57.6716Z" fill="#058B43"/>
<path d="M29.4466 22.8029V48.4359M36.4775 12.2534V9.36316C36.4754 8.5973 36.197 7.86344 35.703 7.3219C35.209 6.78035 34.5395 6.47512 33.8409 6.4729H25.0522C24.3536 6.47512 23.6841 6.78035 23.1901 7.3219C22.6961 7.86344 22.4177 8.5973 22.4156 9.36316V12.2534H36.4775ZM47.0238 28.752V18.034C47.0198 16.5022 46.4629 15.0345 45.4749 13.9514C44.4868 12.8683 43.1479 12.2579 41.7507 12.2534H17.1424C15.7452 12.2579 14.4063 12.8683 13.4182 13.9514C12.4302 15.0345 11.8733 16.5022 11.8693 18.034V29.1133L47.0238 28.752Z" stroke="#058B43" stroke-width="4" stroke-linecap="round" stroke-linejoin="round"/>
</g>
<defs>
<filter id="filter0_d_8_70" x="-2.67712" y="0.692383" width="64.2473" height="69.6589" filterUnits="userSpaceOnUse" color-interpolation-filters="sRGB">
<feFlood flood-opacity="0" result="BackgroundImageFix"/>
<feColorMatrix in="SourceAlpha" type="matrix" values="0 0 0 0 0 0 0 0 0 0 0 0 0 0 0 0 0 0 127 0" result="hardAlpha"/>
<feOffset dy="4"/>
<feGaussianBlur stdDeviation="2"/>
<feComposite in2="hardAlpha" operator="out"/>
<feColorMatrix type="matrix" values="0 0 0 0 0 0 0 0 0 0 0 0 0 0 0 0 0 0 0.25 0"/>
<feBlend mode="normal" in2="BackgroundImageFix" result="effect1_dropShadow_8_70"/>
<feBlend mode="normal" in="SourceGraphic" in2="effect1_dropShadow_8_70" result="shape"/>
</filter>
</defs>
</svg>
