<svg width="59" height="66" viewBox="0 0 59 66" fill="none" xmlns="http://www.w3.org/2000/svg">
<g filter="url(#filter0_d_8_78)">
<path d="M52.0764 31.4953C51.8567 30.9221 51.3393 30.5523 50.7944 30.3524L30.2311 21.383C29.7243 21.2096 29.1813 21.2096 28.6744 21.383L8.13099 30.3573C7.5817 30.5451 7.05108 30.9317 6.83356 31.5049C6.61605 32.0782 6.51058 32.6333 6.72371 33.321L11.8354 47.6699C11.9006 47.8464 12.0151 47.9955 12.1626 48.096C12.3101 48.1964 12.4829 48.2429 12.656 48.2287C15.5882 48.0264 18.183 46.3946 20.1681 44.3148C20.3242 44.1541 20.5302 44.0646 20.7443 44.0646C20.9584 44.0646 21.1645 44.1541 21.3205 44.3148C23.443 46.5427 26.2675 48.2287 29.4533 48.2287C32.6392 48.2287 35.4472 46.5427 37.5697 44.31C37.7259 44.1492 37.9321 44.0597 38.1464 44.0597C38.3607 44.0597 38.5669 44.1492 38.7232 44.31C40.7083 46.391 43.3031 48.0264 46.2353 48.2287C46.4079 48.2431 46.5802 48.1971 46.7274 48.0973C46.8747 47.9976 46.9893 47.8492 47.0548 47.6736L52.1852 33.3234C52.4027 32.7477 52.2939 32.0697 52.0764 31.4953V31.4953Z" stroke="#F01818" stroke-width="4" stroke-miterlimit="10"/>
<path d="M47.0307 57.0368C47.0306 56.889 46.9943 56.7439 46.9255 56.6168C46.8566 56.4896 46.7579 56.3851 46.6396 56.3142C43.6646 54.562 40.9522 51.8801 39.7591 50.5337C39.5819 50.33 39.3454 50.2003 39.0903 50.1671C38.8352 50.1339 38.5776 50.1993 38.3618 50.3519C32.8326 54.2561 26.1005 54.2585 20.5702 50.3579C20.3525 50.2038 20.0923 50.1381 19.835 50.1725C19.5777 50.2068 19.3395 50.3389 19.1619 50.5458C17.9787 51.9042 15.296 54.556 12.3034 56.2962C12.1847 56.3621 12.0832 56.46 12.0084 56.5807C11.9337 56.7014 11.8881 56.8409 11.8761 56.9862C11.8672 57.11 11.8843 57.2344 11.9262 57.3498C11.9681 57.4651 12.0336 57.5684 12.1177 57.6516C12.2018 57.7348 12.3022 57.7958 12.4111 57.8297C12.5201 57.8636 12.6347 57.8696 12.7461 57.8473C15.0367 57.3439 17.2503 56.1998 19.3596 54.9775C19.4949 54.8994 19.6453 54.858 19.7982 54.8567C19.9511 54.8555 20.1021 54.8944 20.2385 54.9703C23.095 56.5636 26.2546 57.3943 29.4597 57.3947C32.6648 57.3952 35.8245 56.5652 38.6814 54.9727C38.8194 54.8961 38.972 54.8567 39.1266 54.858C39.2812 54.8593 39.4333 54.9011 39.5702 54.9799C41.6685 56.1842 43.8788 57.3391 46.1617 57.8461C46.2692 57.868 46.3798 57.8635 46.4855 57.8329C46.5913 57.8023 46.6895 57.7463 46.7731 57.6689C46.8566 57.5916 46.9235 57.4949 46.9688 57.3858C47.0141 57.2767 47.0367 57.1579 47.035 57.038L47.0307 57.0368Z" fill="#F01818"/>
<path d="M29.4534 22.1681V47.8012M36.4843 11.6187V8.7284C36.4823 7.96254 36.2038 7.22868 35.7098 6.68713C35.2158 6.14558 34.5464 5.84036 33.8477 5.83813H25.0591C24.3604 5.84036 23.691 6.14558 23.197 6.68713C22.7029 7.22868 22.4245 7.96254 22.4225 8.7284V11.6187H36.4843ZM47.0307 28.1173V17.3992C47.0266 15.8675 46.4698 14.3997 45.4817 13.3167C44.4937 12.2336 43.1548 11.6231 41.7575 11.6187H17.1493C15.752 11.6231 14.4131 12.2336 13.4251 13.3167C12.437 14.3997 11.8802 15.8675 11.8761 17.3992V28.4785L47.0307 28.1173Z" stroke="#F01818" stroke-width="4" stroke-linecap="round" stroke-linejoin="round"/>
</g>
<defs>
<filter id="filter0_d_8_78" x="-2.67029" y="0.0576172" width="64.2473" height="69.6589" filterUnits="userSpaceOnUse" color-interpolation-filters="sRGB">
<feFlood flood-opacity="0" result="BackgroundImageFix"/>
<feColorMatrix in="SourceAlpha" type="matrix" values="0 0 0 0 0 0 0 0 0 0 0 0 0 0 0 0 0 0 127 0" result="hardAlpha"/>
<feOffset dy="4"/>
<feGaussianBlur stdDeviation="2"/>
<feComposite in2="hardAlpha" operator="out"/>
<feColorMatrix type="matrix" values="0 0 0 0 0 0 0 0 0 0 0 0 0 0 0 0 0 0 0.25 0"/>
<feBlend mode="normal" in2="BackgroundImageFix" result="effect1_dropShadow_8_78"/>
<feBlend mode="normal" in="SourceGraphic" in2="effect1_dropShadow_8_78" result="shape"/>
</filter>
</defs>
</svg>
