<svg width="59" height="66" viewBox="0 0 59 66" fill="none" xmlns="http://www.w3.org/2000/svg">
<g filter="url(#filter0_d_8_82)">
<path d="M52.065 31.6264C51.8453 31.0532 51.3278 30.6835 50.7829 30.4835L30.2197 21.5141C29.7129 21.3407 29.1699 21.3407 28.663 21.5141L8.11957 30.4884C7.57028 30.6762 7.03967 31.0628 6.82215 31.636C6.60463 32.2093 6.49917 32.7644 6.71229 33.4521L11.824 47.801C11.8891 47.9775 12.0037 48.1266 12.1512 48.2271C12.2987 48.3275 12.4715 48.374 12.6446 48.3598C15.5767 48.1575 18.1716 46.5257 20.1567 44.4459C20.3128 44.2852 20.5188 44.1957 20.7329 44.1957C20.947 44.1957 21.1531 44.2852 21.3091 44.4459C23.4316 46.6738 26.256 48.3598 29.4419 48.3598C32.6278 48.3598 35.4358 46.6738 37.5582 44.4411C37.7145 44.2803 37.9207 44.1908 38.135 44.1908C38.3493 44.1908 38.5555 44.2803 38.7117 44.4411C40.6969 46.5221 43.2917 48.1575 46.2238 48.3598C46.3964 48.3742 46.5688 48.3282 46.716 48.2284C46.8633 48.1287 46.9779 47.9803 47.0434 47.8047L52.1738 33.4545C52.3913 32.8789 52.2825 32.2008 52.065 31.6264V31.6264Z" stroke="#C6C931" stroke-width="4" stroke-miterlimit="10"/>
<path d="M47.0192 57.1679C47.0191 57.0201 46.9828 56.875 46.914 56.7479C46.8452 56.6207 46.7464 56.5162 46.6281 56.4453C43.6531 54.6931 40.9407 52.0112 39.7477 50.6648C39.5704 50.4611 39.3339 50.3314 39.0788 50.2982C38.8238 50.265 38.5661 50.3304 38.3503 50.483C32.8211 54.3872 26.089 54.3896 20.5588 50.489C20.341 50.3349 20.0809 50.2693 19.8236 50.3036C19.5663 50.3379 19.3281 50.47 19.1504 50.6769C17.9672 52.0353 15.2845 54.6871 12.2919 56.4273C12.1732 56.4932 12.0717 56.5911 11.997 56.7118C11.9222 56.8325 11.8767 56.972 11.8646 57.1173C11.8557 57.2411 11.8728 57.3655 11.9147 57.4809C11.9566 57.5962 12.0221 57.6995 12.1062 57.7827C12.1903 57.8659 12.2907 57.9269 12.3997 57.9608C12.5086 57.9947 12.6232 58.0007 12.7347 57.9784C15.0252 57.475 17.2389 56.3309 19.3481 55.1086C19.4834 55.0305 19.6338 54.9891 19.7868 54.9878C19.9397 54.9866 20.0906 55.0255 20.227 55.1014C23.0835 56.6947 26.2432 57.5254 29.4482 57.5258C32.6533 57.5263 35.8131 56.6964 38.67 55.1038C38.8079 55.0272 38.9605 54.9878 39.1151 54.9891C39.2698 54.9904 39.4219 55.0322 39.5587 55.111C41.657 56.3153 43.8674 57.4702 46.1502 57.9772C46.2577 57.9991 46.3683 57.9946 46.4741 57.964C46.5798 57.9334 46.678 57.8774 46.7616 57.8C46.8451 57.7227 46.912 57.626 46.9573 57.5169C47.0026 57.4078 47.0253 57.289 47.0236 57.1691L47.0192 57.1679Z" fill="#C6C931"/>
<path d="M29.4419 22.2992V47.9323M36.4728 11.7498V8.8595C36.4708 8.09364 36.1924 7.35978 35.6983 6.81823C35.2043 6.27669 34.5349 5.97146 33.8362 5.96924H25.0476C24.3489 5.97146 23.6795 6.27669 23.1855 6.81823C22.6915 7.35978 22.413 8.09364 22.411 8.8595V11.7498H36.4728ZM47.0192 28.2484V17.5303C47.0151 15.9986 46.4583 14.5309 45.4702 13.4478C44.4822 12.3647 43.1433 11.7542 41.746 11.7498H17.1378C15.7405 11.7542 14.4016 12.3647 13.4136 13.4478C12.4256 14.5309 11.8687 15.9986 11.8646 17.5303V28.6096L47.0192 28.2484Z" stroke="#C6C931" stroke-width="4" stroke-linecap="round" stroke-linejoin="round"/>
</g>
<defs>
<filter id="filter0_d_8_82" x="-2.68176" y="0.188721" width="64.2473" height="69.6589" filterUnits="userSpaceOnUse" color-interpolation-filters="sRGB">
<feFlood flood-opacity="0" result="BackgroundImageFix"/>
<feColorMatrix in="SourceAlpha" type="matrix" values="0 0 0 0 0 0 0 0 0 0 0 0 0 0 0 0 0 0 127 0" result="hardAlpha"/>
<feOffset dy="4"/>
<feGaussianBlur stdDeviation="2"/>
<feComposite in2="hardAlpha" operator="out"/>
<feColorMatrix type="matrix" values="0 0 0 0 0 0 0 0 0 0 0 0 0 0 0 0 0 0 0.25 0"/>
<feBlend mode="normal" in2="BackgroundImageFix" result="effect1_dropShadow_8_82"/>
<feBlend mode="normal" in="SourceGraphic" in2="effect1_dropShadow_8_82" result="shape"/>
</filter>
</defs>
</svg>
